<?xml version="1.0" encoding="utf-8"?>
<!-- Generator: Adobe Illustrator 24.0.3, SVG Export Plug-In . SVG Version: 6.00 Build 0)  -->
<svg version="1.1" id="Layer_1" xmlns="http://www.w3.org/2000/svg" xmlns:xlink="http://www.w3.org/1999/xlink" x="0px" y="0px"
	 viewBox="0 0 256 96" style="enable-background:new 0 0 256 96;" xml:space="preserve">
<style type="text/css">
	.st0{fill:url(#SVGID_1_);}
	.st1{fill:#FFFFFF;}
</style>
<linearGradient id="SVGID_1_" gradientUnits="userSpaceOnUse" x1="19.5581" y1="-27.9318" x2="236.4419" y2="123.9318">
	<stop  offset="0" style="stop-color:#9FC63E"/>
	<stop  offset="1" style="stop-color:#00A987"/>
</linearGradient>
<rect class="st0" width="256" height="96"/>
<g id="XMLID_697_">
	<path id="XMLID_707_" class="st1" d="M66.49,45.09h16.14l-1.31,4.24H65.38L66.49,45.09z"/>
	<path id="XMLID_705_" class="st1" d="M112.29,55.48l17.9-22.04h6.08l-23.33,29.12H91.32l0.52-29.12h20.45V55.48z"/>
	<path id="XMLID_703_" class="st1" d="M132.75,59.25c0-0.84,0.24-2.18,0.72-4.04c0.48-1.85,1.13-4.06,1.96-6.62
		c0.57-1.81,1.27-3.61,2.12-5.39c0.85-1.79,1.76-3.4,2.74-4.83c0.98-1.43,2.01-2.6,3.1-3.51c1.09-0.9,2.16-1.36,3.2-1.36h31.89
		c-0.04,0.13-0.12,0.57-0.23,1.32c-0.11,0.75-0.29,1.43-0.56,2.05c-0.44,0.84-0.83,1.26-1.18,1.26h-17.25
		c-0.05,0-0.27,0.26-0.69,0.79c-0.41,0.53-0.75,1.08-1.01,1.66l-0.65,2.05c-0.04,0.18-0.06,0.42-0.06,0.73
		c0,0.62,0.09,1.19,0.26,1.72h15.42l-1.57,4.24h-15.88c-0.35,0.09-0.68,0.6-0.98,1.52l-0.65,1.79c-0.05,0.18-0.09,0.35-0.13,0.53
		l-0.72,4.3h17.12l-0.46,1.39c-0.17,0.57-0.34,1.07-0.49,1.49c-0.15,0.42-0.29,0.72-0.42,0.89c-0.22,0.22-0.47,0.5-0.75,0.83
		c-0.28,0.33-0.47,0.5-0.55,0.5h-31.69c-0.09,0-0.25-0.1-0.49-0.3c-0.24-0.2-0.49-0.43-0.75-0.69c-0.26-0.27-0.52-0.55-0.78-0.86
		c-0.26-0.31-0.46-0.57-0.59-0.79V59.25z"/>
	<path id="XMLID_701_" class="st1" d="M176.26,58.26c0-1.28,0.2-2.92,0.59-4.93c0.39-2.01,0.98-4.03,1.76-6.06
		c0.7-1.72,1.46-3.42,2.29-5.1c0.83-1.68,1.72-3.15,2.68-4.43c0.96-1.28,1.98-2.32,3.07-3.11c1.09-0.79,2.24-1.19,3.46-1.19h28.88
		l-0.13,1.32l-0.72,1.99c-0.13,0.35-0.25,0.67-0.36,0.96c-0.11,0.29-0.19,0.43-0.23,0.43h-15.03c-0.04,0.09-0.28,0.6-0.72,1.52
		c-0.44,0.93-0.94,2.04-1.5,3.34c-0.57,1.3-1.13,2.66-1.7,4.07c-0.57,1.41-1.03,2.62-1.37,3.64l-1.57,5.16
		c0,0.27,0.04,0.56,0.13,0.89c0.09,0.33,0.13,0.61,0.13,0.83h13.98v0.79c0,0.4-0.03,0.84-0.1,1.32c-0.07,0.49-0.19,0.94-0.36,1.36
		c-0.17,0.42-0.38,0.77-0.62,1.06c-0.24,0.29-0.56,0.43-0.95,0.43h-28.88c-1.31-0.75-2.09-1.52-2.35-2.32
		C176.39,59.45,176.26,58.79,176.26,58.26z"/>
	<g id="XMLID_698_">
		<polygon id="XMLID_700_" class="st1" points="64.31,39.23 66.43,33.44 48.06,33.44 45.95,39.23 		"/>
		<polygon id="XMLID_699_" class="st1" points="44.18,44.07 37.41,62.56 55.77,62.56 62.54,44.07 		"/>
	</g>
</g>
<g>
	<g>
		<path class="st1" d="M123.65,145.15c1.93,0,1.93-3,0-3C121.72,142.15,121.72,145.15,123.65,145.15L123.65,145.15z"/>
	</g>
</g>
</svg>
