<?xml version="1.0" encoding="utf-8"?>
<!-- Generator: Adobe Illustrator 24.0.3, SVG Export Plug-In . SVG Version: 6.00 Build 0)  -->
<svg version="1.1" id="Layer_1" xmlns="http://www.w3.org/2000/svg" xmlns:xlink="http://www.w3.org/1999/xlink" x="0px" y="0px"
	 viewBox="0 0 64 64" style="enable-background:new 0 0 64 64;" xml:space="preserve">
<style type="text/css">
	.st0{fill:#EAE880;}
	.st1{fill:#FFDE4A;}
	.st2{fill:#303C42;}
	.st3{fill:#78909C;}
	.st4{fill:#F2F2F2;}
	.st5{fill:#FFCA28;}
	.st6{fill:url(#SVGID_1_);}
	.st7{fill:#689F38;}
	.st8{opacity:0.3;fill:#FFFFFF;enable-background:new    ;}
	.st9{fill:url(#SVGID_2_);}
</style>
<g>
	<path class="st0" d="M31.9,63c-0.8,0-1.5-0.6-2-1.1L12.8,38.5C9.6,34.4,8,29.6,8,24.5C8,11.5,18.8,1,32,1s24,10.5,24,23.5
		c0,5.1-1.6,10-4.8,14L34.9,60.8C34.2,61.8,33.1,63,31.9,63L31.9,63z"/>
	<path class="st1" d="M32,2c12.7,0,23,10.1,23,22.5c0,4.9-1.6,9.5-4.6,13.5L34.1,60.2c-0.8,1.2-1.7,1.8-2.2,1.8
		c-0.5,0-0.9-0.4-1.2-0.7L13.6,37.9C10.6,34,9,29.3,9,24.5C9,12.1,19.3,2,32,2 M32,0C18.2,0,7,11,7,24.5C7,30,8.9,35,12,39.1
		l17.1,23.5c0.6,0.7,1.6,1.4,2.8,1.4c1.1,0,2.4-0.7,3.9-2.6L52,39.1c3.1-4.1,5-9.2,5-14.7C57,11,45.8,0,32,0L32,0z"/>
</g>
<g>
	<path class="st2" d="M46.8,10.8c-0.4,0-0.7,0.3-0.7,0.7v0.7h-1.5v-0.7c0-0.4-0.3-0.7-0.7-0.7s-0.7,0.3-0.7,0.7v2.9
		c0,0.9,0.6,1.7,1.5,2v15.3c0,0.4-0.3,0.7-0.7,0.7s-0.7-0.3-0.7-0.7v-1.5c0-0.9-0.6-1.7-1.5-2V9.4c0-1.6-1.3-2.9-2.9-2.9H24.3
		c-1.6,0-2.9,1.3-2.9,2.9v26.1c-1.6,0-2.9,1.3-2.9,2.9v2.2c0,0.4,0.3,0.7,0.7,0.7h24.6c0.4,0,0.7-0.3,0.7-0.7v-2.2
		c0-1.6-1.3-2.9-2.9-2.9v-3.6c0,1.2,1,2.2,2.2,2.2s2.2-1,2.2-2.2V16.5c0.8-0.3,1.5-1.1,1.5-2v-2.9C47.5,11.1,47.2,10.8,46.8,10.8z"
		/>
	<path class="st3" d="M22.9,35.4v-26c0-0.8,0.6-1.4,1.4-1.4h14.5c0.8,0,1.5,0.6,1.5,1.4v26.1L22.9,35.4L22.9,35.4z"/>
	<path class="st2" d="M38.1,9.4H25c-0.4,0-0.7,0.3-0.7,0.7v8.7c0,0.4,0.3,0.7,0.7,0.7h13c0.4,0,0.7-0.3,0.7-0.7v-8.7
		C38.8,9.7,38.5,9.4,38.1,9.4z"/>
	<path class="st3" d="M43.1,38.3v1.5H20v-1.5c0-0.8,0.6-1.5,1.5-1.5h20.3C42.5,36.9,43.1,37.5,43.1,38.3z"/>
	<path class="st4" d="M45.3,15.1c-0.4,0-0.7-0.3-0.7-0.7v-0.7H46v0.7C46,14.8,45.7,15.1,45.3,15.1z"/>
	<path class="st2" d="M35.2,25.3H33v-3.6c0-0.3-0.2-0.6-0.5-0.7s-0.6,0-0.8,0.3l-4.3,7.2c-0.1,0.2-0.1,0.5,0,0.7s0.4,0.4,0.6,0.4
		h2.2v3.6c0,0.3,0.2,0.6,0.5,0.7c0.1,0,0.1,0,0.2,0c0.2,0,0.5-0.1,0.6-0.3l4.3-7.2c0.1-0.2,0.1-0.5,0-0.7
		C35.7,25.4,35.4,25.3,35.2,25.3z"/>
	<path class="st5" d="M31.6,30.6v-1.7c0-0.4-0.3-0.7-0.7-0.7h-1.6l2.3-3.9V26c0,0.4,0.3,0.7,0.7,0.7h1.6L31.6,30.6z"/>
	
		<linearGradient id="SVGID_1_" gradientUnits="userSpaceOnUse" x1="-50.9877" y1="-581.3316" x2="-50.4779" y2="-580.8219" gradientTransform="matrix(21.3333 0 0 21.3333 1116.9099 12426.4473)">
		<stop  offset="0" style="stop-color:#000000;stop-opacity:0.1"/>
		<stop  offset="1" style="stop-color:#000000;stop-opacity:0"/>
	</linearGradient>
	<path class="st6" d="M32.8,21.1L32.8,21.1C32.8,21.2,32.8,21.2,32.8,21.1L32.8,21.1z M27.4,29.4L27.4,29.4l2.7,2.7v-2.5h-2.2
		C27.7,29.6,27.6,29.5,27.4,29.4z M32.9,21.2c0.1,0.1,0.2,0.3,0.2,0.4v3.6h2.2c0.3,0,0.5,0.1,0.6,0.4c0.1,0.2,0.1,0.5,0,0.7
		l-4.3,7.2c-0.1,0.2-0.4,0.3-0.6,0.3c-0.1,0-0.1,0-0.2,0l1.5,1.5h8.1v-6.8L32.9,21.2z"/>
	<rect x="25.8" y="10.8" class="st7" width="11.6" height="7.2"/>
	<g>
		<polygon class="st8" points="25.8,15.1 30.1,10.8 33,10.8 25.8,18.1 		"/>
		<polygon class="st8" points="27.9,18 35.2,10.8 37.4,10.8 30.1,18.1 		"/>
	</g>
	
		<linearGradient id="SVGID_2_" gradientUnits="userSpaceOnUse" x1="-51.558" y1="-581.6389" x2="-50.0938" y2="-580.9559" gradientTransform="matrix(21.3333 0 0 21.3333 1116.9099 12426.4473)">
		<stop  offset="0" style="stop-color:#FFFFFF;stop-opacity:0.2"/>
		<stop  offset="1" style="stop-color:#FFFFFF;stop-opacity:0"/>
	</linearGradient>
	<path class="st9" d="M46.8,10.8c-0.4,0-0.7,0.3-0.7,0.7v0.7h-1.5v-0.7c0-0.4-0.3-0.7-0.7-0.7s-0.7,0.3-0.7,0.7v2.9
		c0,0.9,0.6,1.7,1.5,2v15.3c0,0.4-0.3,0.7-0.7,0.7s-0.7-0.3-0.7-0.7v-1.5c0-0.9-0.6-1.7-1.5-2V9.4c0-1.6-1.3-2.9-2.9-2.9H24.3
		c-1.6,0-2.9,1.3-2.9,2.9v26.1c-1.6,0-2.9,1.3-2.9,2.9v2.2c0,0.4,0.3,0.7,0.7,0.7h24.6c0.4,0,0.7-0.3,0.7-0.7v-2.2
		c0-1.6-1.3-2.9-2.9-2.9v-3.6c0,1.2,1,2.2,2.2,2.2s2.2-1,2.2-2.2V16.5c0.8-0.3,1.5-1.1,1.5-2v-2.9C47.5,11.1,47.2,10.8,46.8,10.8z"
		/>
</g>
</svg>
