<?xml version="1.0" encoding="utf-8"?>
<!-- Generator: Adobe Illustrator 24.0.3, SVG Export Plug-In . SVG Version: 6.00 Build 0)  -->
<svg version="1.1" id="Layer_1" xmlns="http://www.w3.org/2000/svg" xmlns:xlink="http://www.w3.org/1999/xlink" x="0px" y="0px"
	 viewBox="0 0 64 64" style="enable-background:new 0 0 64 64;" xml:space="preserve">
<g>
	<path style="fill:#A7CD80;" d="M31.9,63c-0.8,0-1.5-0.6-2-1.1l-17-23.4c-3.1-4.1-4.8-9-4.8-14.1C8.1,11.5,18.8,1,32,1
		s23.9,10.5,23.9,23.5c0,5.1-1.6,10-4.8,14L34.9,60.8C34.2,61.8,33.1,63,31.9,63L31.9,63z"/>
	<path style="fill:#82BD48;" d="M32,2c12.6,0,22.9,10.1,22.9,22.5c0,4.9-1.6,9.5-4.6,13.5L34.1,60.2c-0.8,1.1-1.7,1.8-2.2,1.8
		s-0.9-0.4-1.2-0.7l-17-23.4c-3-3.9-4.6-8.5-4.6-13.4C9.1,12.1,19.4,2,32,2 M32,0C18.2,0,7.1,11,7.1,24.5c0,5.5,1.8,10.6,5,14.6
		l17.1,23.5c0.6,0.7,1.6,1.4,2.8,1.4c1.1,0,2.4-0.7,3.9-2.6L52,39.1c3.1-4.1,5-9.1,5-14.6C56.9,11,45.8,0,32,0L32,0z"/>
</g>
<g>
	<g id="Layer_1_117_">
		<g>
			<path style="fill:#50535A;" d="M31.9,32.4c-1.8,0-3.3,1.5-3.3,3.3v6.6c0,1.8,1.5,3.3,3.3,3.3c1.8,0,3.3-1.5,3.3-3.3v-6.6
				C35.2,33.9,33.7,32.4,31.9,32.4z"/>
			<path style="fill:#50535A;" d="M43.8,12.4h-6.3C36.8,10,34.6,8.3,32,8.3s-4.8,1.7-5.5,4.1h-6.2c-0.9,0-1.6,0.7-1.6,1.6
				s0.7,1.6,1.6,1.6h6.3l0,0c0.4,1.4,1.3,2.5,2.5,3.3c-4.4,1.3-7.7,5.4-7.7,10.2v8.6c0,1.5,1.2,2.7,2.7,2.7h2.2v-4.7
				c0-3.2,2.6-5.8,5.8-5.8s5.8,2.6,5.8,5.8v4.7H40c1.5,0,2.7-1.2,2.7-2.7v-8.5c0-4.8-3.3-9-7.7-10.2c1.2-0.7,2.1-1.9,2.5-3.3l0,0
				h6.3c0.9,0,1.6-0.7,1.6-1.6C45.4,13.2,44.6,12.4,43.8,12.4z M31.9,17.4c-1.8,0-3.3-1.5-3.3-3.3s1.5-3.3,3.3-3.3
				c1.8,0,3.3,1.5,3.3,3.3C35.3,15.9,33.8,17.4,31.9,17.4z"/>
		</g>
	</g>
</g>
</svg>
