<?xml version="1.0" encoding="utf-8"?>
<!-- Generator: Adobe Illustrator 24.0.3, SVG Export Plug-In . SVG Version: 6.00 Build 0)  -->
<svg version="1.1" id="Layer_1" xmlns="http://www.w3.org/2000/svg" xmlns:xlink="http://www.w3.org/1999/xlink" x="0px" y="0px"
	 viewBox="0 0 64 64" style="enable-background:new 0 0 64 64;" xml:space="preserve">
<style type="text/css">
	.st0{fill:#E65A2A;}
	.st1{fill:#CA5040;}
	.st2{fill:#FAB72D;}
	.st3{fill:#F39000;}
	.st4{fill:#FDC84A;}
	.st5{fill:#50535A;}
</style>
<g>
	<path class="st0" d="M31.9,63c-0.8,0-1.5-0.6-2-1.1l-17-23.4c-3.1-4.1-4.8-9-4.8-14.1C8.1,11.5,18.8,1,32,1s23.9,10.5,23.9,23.5
		c0,5.1-1.6,10-4.8,14L34.9,60.8C34.2,61.8,33.1,63,31.9,63L31.9,63z"/>
	<path class="st1" d="M32,2c12.6,0,22.9,10.1,22.9,22.5c0,4.9-1.6,9.5-4.6,13.5L34.1,60.2c-0.8,1.1-1.7,1.8-2.2,1.8
		c-0.5,0-0.9-0.4-1.2-0.7l-17-23.4c-3-3.9-4.6-8.5-4.6-13.4C9.1,12.1,19.4,2,32,2 M32,0C18.2,0,7.1,11,7.1,24.5
		c0,5.5,1.8,10.6,5,14.6l17.1,23.5c0.6,0.7,1.6,1.4,2.8,1.4c1.1,0,2.4-0.7,3.9-2.6L52,39.1c3.1-4.1,5-9.1,5-14.6
		C56.9,11,45.8,0,32,0L32,0z"/>
</g>
<g>
	<path class="st2" d="M45.9,33.3c1.2,1.2,1.2,3.1,0,4.2c-1.2,1.2-3.1,1.2-4.2,0l-8-8.7l3.5-3.5L45.9,33.3z"/>
	<path class="st3" d="M35.4,23.7l1.8,1.6l-3.5,3.5L32,27.1L35.4,23.7z"/>
	<path class="st4" d="M46.5,12.6l-2.7,2.7h-1.7l-1.7-1.7v-1.7l2.6-2.7C42.5,9.1,42,9,41.3,9c-3.7,0-6.3,3.6-5.1,7.1l-5.1,5.1l0,0
		l-8-8v-1.7L18.9,9l-1.7,1.7l2.5,4.2h1.7l8,8l0,0L24.4,28c-3.5-1.2-7.1,1.4-7.1,5.1c0,0.6,0.1,1.2,0.3,1.7l2.7-2.7h1.7l1.7,1.7v1.7
		l-2.7,2.7c0.5,0.2,1.1,0.3,1.7,0.3c3.7,0,6.3-3.6,5.1-7.1c2.5-2.5,9.4-9.4,11.9-11.9c0.5,0.2,1.1,0.3,1.7,0.3c3,0,5.4-2.4,5.4-5.4
		C46.8,13.7,46.7,13.2,46.5,12.6z"/>
	<path class="st5" d="M37.5,17.7c-0.3,0-0.6,0.3-0.6,0.6c0,0.3,0.3,0.6,0.6,0.6s0.6-0.3,0.6-0.6C38,17.9,37.8,17.7,37.5,17.7z"/>
	<path class="st5" d="M26.5,28.6c-0.3,0-0.6,0.3-0.6,0.6c0,0.3,0.3,0.6,0.6,0.6c0.3,0,0.6-0.3,0.6-0.6
		C27.2,28.8,26.9,28.6,26.5,28.6z"/>
	<path class="st5" d="M46.6,12c-0.2,0-0.4,0-0.6,0.2l-2.5,2.5h-1.2l-1.3-1.4v-1.2l2.4-2.5c0.1-0.1,0.2-0.4,0.2-0.6
		c0-0.2-0.2-0.4-0.4-0.4c-0.6-0.2-1.3-0.3-1.9-0.3c-2,0-3.7,0.9-4.9,2.5c-1.1,1.5-1.4,3.3-0.9,5.1l-4.4,4.4l-7.4-7.4v-1.4
		c0-0.2-0.1-0.4-0.3-0.5l-4.2-2.5c-0.2-0.1-0.5-0.1-0.7,0.1l-1.7,1.7c-0.2,0.2-0.2,0.5-0.1,0.7l2.5,4.2c0.1,0.2,0.3,0.3,0.5,0.3h1.4
		l7.4,7.4l-4.4,4.4c-1.7-0.5-3.6-0.1-5.1,0.9c-1.6,1.1-2.5,2.9-2.5,4.9c0,0.7,0.1,1.3,0.3,1.9c0.1,0.2,0.2,0.3,0.4,0.4
		c0.2,0,0.4,0,0.6-0.2l2.5-2.5h1.2l1.4,1.4v1.2l-2.5,2.5c-0.1,0.1-0.2,0.4-0.2,0.6c0,0.2,0.2,0.4,0.4,0.4c0.6,0.2,1.3,0.3,1.9,0.3
		c2,0,3.7-0.9,4.9-2.5c1.1-1.5,1.4-3.3,0.9-5.1L32,28l0.8,0.9l-0.4,0.4c-0.2,0.2-0.2,0.6,0,0.8c0.2,0.2,0.6,0.2,0.8,0l0.3-0.3
		l7.6,8.3c0,0,0,0,0,0c1.4,1.4,3.7,1.4,5.1,0c1.4-1.4,1.4-3.7,0-5.1c0,0,0,0,0,0L38,25.3l0.3-0.3c0.2-0.2,0.2-0.6,0-0.8
		s-0.6-0.2-0.8,0l-0.4,0.4l-0.9-0.8l3.6-3.6c0.5,0.1,1,0.2,1.6,0.2c3.3,0,6-2.7,6-6c0-0.7-0.1-1.3-0.3-1.9
		C47,12.2,46.8,12.1,46.6,12z M21.9,14.5c-0.1-0.1-0.3-0.2-0.4-0.2h-1.4L18,10.7l1-1l3.6,2.1v1.4c0,0.2,0.1,0.3,0.2,0.4l7.5,7.6
		L29.5,22L21.9,14.5z M37.2,26.2l8.3,7.6c0.9,0.9,0.9,2.5,0,3.4c-0.9,0.9-2.4,0.9-3.4,0l-7.6-8.3L37.2,26.2z M36.3,25.4L33.6,28
		l-0.8-0.9l2.6-2.6L36.3,25.4z M41.4,19.2c-0.5,0-1-0.1-1.5-0.2c-0.2-0.1-0.5,0-0.6,0.1c-3,3-9.5,9.5-11.9,11.9
		c-0.2,0.2-0.2,0.4-0.1,0.6c0.5,1.5,0.3,3.1-0.7,4.3c-0.9,1.3-2.3,2-3.9,2c-0.2,0-0.3,0-0.5,0l1.9-1.9c0.1-0.1,0.2-0.3,0.2-0.4v-1.7
		c0-0.2-0.1-0.3-0.2-0.4l-1.7-1.7c-0.1-0.1-0.3-0.2-0.4-0.2h-1.7c-0.2,0-0.3,0.1-0.4,0.2l-1.9,1.9c0-0.2,0-0.3,0-0.5
		c0-1.6,0.7-3,2-3.9c1.3-0.9,2.9-1.2,4.3-0.7c0.2,0.1,0.5,0,0.6-0.1c0,0,11.9-11.9,11.9-11.9c0.2-0.2,0.2-0.4,0.1-0.6
		c-0.5-1.5-0.3-3.1,0.7-4.3s2.3-2,3.9-2c0.2,0,0.4,0,0.5,0L40,11.5c-0.1,0.1-0.2,0.3-0.2,0.4v1.7c0,0.2,0.1,0.3,0.2,0.4l1.7,1.7
		c0.1,0.1,0.3,0.2,0.4,0.2h1.7c0.2,0,0.3-0.1,0.4-0.2l1.9-1.9c0,0.2,0,0.3,0,0.5C46.2,17,44,19.2,41.4,19.2z"/>
	<path class="st5" d="M35.3,19.5L27.8,27c-0.2,0.2-0.2,0.6,0,0.8s0.6,0.2,0.8,0l7.5-7.5c0.2-0.2,0.2-0.6,0-0.8
		C35.9,19.3,35.6,19.3,35.3,19.5z"/>
	<path class="st5" d="M42.9,35.5c0.2,0.2,0.6,0.2,0.8,0s0.2-0.6,0-0.8l-5.4-5.4c-0.2-0.2-0.6-0.2-0.8,0c-0.2,0.2-0.2,0.6,0,0.8
		L42.9,35.5z"/>
</g>
</svg>
